<svg width="325" height="44" viewBox="0 0 325 44" fill="none" xmlns="http://www.w3.org/2000/svg">
<path d="M193 0H207.884V17.045H236.734V0H251.72V44H236.734V25.2372H207.884V44H193V0Z" fill="black"/>
<path d="M265.974 0H283.305L311.441 30.8529V0H325V44H307.873L279.533 12.9489V44H265.974V0Z" fill="black"/>
<path d="M23.6641 21.4054L1.69743 0H18.8714L33.3495 14.1381L47.8275 0H63.8033L41.9365 20.8769L66 44H48.3268L32.2511 28.4745L16.6747 44H0L23.6641 21.4054Z" fill="black"/>
<path fill-rule="evenodd" clip-rule="evenodd" d="M88 0C75.8496 0 66 9.84973 66 22C66 34.1503 75.8496 44 88 44H163C175.15 44 185 34.1503 185 22C185 9.84973 175.15 0 163 0H88ZM92.5 11C86.1489 11 81 16.1487 81 22.5C81 28.8513 86.1489 34 92.5 34H158.5C164.851 34 170 28.8513 170 22.5C170 16.1487 164.851 11 158.5 11H92.5Z" fill="black"/>
</svg>
